<svg xmlns="http://www.w3.org/2000/svg" xmlns:xlink="http://www.w3.org/1999/xlink"><symbol viewBox="0 0 40 40" id="account-icon-material" xmlns="http://www.w3.org/2000/svg"><path d="M20 0C8.95 0 0 8.95 0 20s8.95 20 20 20 20-8.95 20-20S31.05 0 20 0zm0 6c3.31 0 6 2.69 6 6 0 3.32-2.69 6-6 6s-6-2.68-6-6c0-3.31 2.69-6 6-6zm0 28.4c-5.01 0-9.41-2.56-12-6.44.05-3.97 8.01-6.16 12-6.16s11.94 2.19 12 6.16c-2.59 3.88-6.99 6.44-12 6.44z"/></symbol><symbol viewBox="0 0 100 125" id="cart-icon" xmlns="http://www.w3.org/2000/svg"><switch><g><path d="M-192 0H-7v99h-185zM0-36h100v30H0z"/><text transform="translate(66 -19.5)" font-family="'Helvetica'" font-size="2.4">http://thenounproject.com</text><text transform="translate(7.166 -24.5)"><tspan x="0" y="0" font-family="'Helvetica-Bold'" font-size="6.158">The Noun Project</tspan><tspan x="1.12" y="4.8" font-family="'Helvetica-Bold'" font-size="4">Icon Template</tspan></text><text transform="translate(-178.5 10.5)" font-family="'Helvetica-Bold'" font-size="6.158">Reminders</text><path stroke="#FFF" stroke-miterlimit="10" d="M8-14.5h10M-179 16.5h17"/><path d="M-170.802 31.318h8.721v8.642h-8.721z"/><path d="M-164.455 42.312h4.747v-4.703h-4.747v4.703zm5.189.437h-5.63V37.17h5.63v5.579zm-6.955 1.313h8.279v-8.203h-8.279v8.203zm8.721.438h-9.163v-9.079h9.163V44.5z"/><path d="M-166.149 44.133l-.143-.142 8.279-8.204.142.142z"/><path fill="none" d="M-179 58h35v32.5h-35z"/><text transform="translate(-179 60.157)"><tspan x="0" y="0" font-family="'Helvetica-Bold'" font-size="3">Strokes</tspan><tspan x="0" y="5" font-family="'Helvetica'" font-size="2.4">Try to keep strokes at 4px</tspan><tspan x="0" y="10" font-family="'Helvetica'" font-size="2.4">Minimum stroke weight is 2px</tspan><tspan x="0" y="14.5" font-family="'Helvetica'" font-size="2.4">For thicker strokes use even </tspan><tspan x="0" y="17.5" font-family="'Helvetica'" font-size="2.4">numbers: 6px, 8px etc.</tspan><tspan x="0" y="22" font-family="'Helvetica-Bold'" font-size="2.4">Remember to expand strokes </tspan><tspan x="0" y="25" font-family="'Helvetica-Bold'" font-size="2.4">before saving as an SVG</tspan></text><path fill="none" d="M-136.5 58h35v32.5h-35z"/><text transform="translate(-136.5 60.157)"><tspan x="0" y="0" font-family="'Helvetica-Bold'" font-size="3">Size</tspan><tspan x="0" y="5" font-family="'Helvetica'" font-size="2.4">Cannot be wider or taller than </tspan><tspan x="0" y="8.5" font-family="'Helvetica'" font-size="2.4">100px (artboard size)</tspan><tspan x="0" y="13.5" font-family="'Helvetica'" font-size="2.4">Scale your icon to fill as much of </tspan><tspan x="0" y="16.5" font-family="'Helvetica'" font-size="2.4">the artboard as possible</tspan></text><path fill="none" d="M-94 58h35v32.5h-35z"/><text transform="translate(-94 60.157)"><tspan x="0" y="0" font-family="'Helvetica-Bold'" font-size="3">Ungroup</tspan><tspan x="0" y="5" font-family="'Helvetica'" font-size="2.4">If your design has more than one </tspan><tspan x="0" y="8" font-family="'Helvetica'" font-size="2.4">shape, make sure to ungroup</tspan></text><path fill="none" d="M-50 58h35v32.5h-35z"/><text transform="translate(-50 60.157)"><tspan x="0" y="0" font-family="'Helvetica-Bold'" font-size="3">Save as</tspan><tspan x="0" y="5" font-family="'Helvetica'" font-size="2.4">Save as .SVG and make sure </tspan><tspan x="0" y="8" font-family="'Helvetica'" font-size="2.4">“Use Artboards” is checked</tspan></text><text transform="matrix(1.0074 0 0 1 -125.542 30.593)" font-family="'Helvetica'" font-size="2.573">100px</text><text transform="matrix(1.0074 0 0 1 -41 39)" font-family="'Helvetica-Bold'" font-size="5.146">.SVG</text><path d="M-126.514 34.815h10.261V45h-10.261zM-126.477 31.766h.522v2.337h-.522zM-116.812 31.766h.523v2.337h-.523z"/><path d="M-127 32.337h11.233v.572H-127zM-83.805 33.844H-73.5V44h-10.305zM-76.809 28.707h3.308v3.261h-3.308z"/><path stroke="#FFF" stroke-miterlimit="10" d="M-178.5 22.5h30v30h-30zM-136.5 22.5h30v30h-30zM-93.5 22.5h30v30h-30zM-49.5 22.5h30v30h-30z"/><g><path d="M81.406 56.562L93.5 25.078H23.12L19.999 15H6.5l1.794 5.078h8.217l16.081 50.073a7.483 7.483 0 0 0-6.1 7.358c0 4.141 3.347 7.49 7.478 7.49a7.487 7.487 0 0 0 7.486-7.49c0-.884-.181-1.724-.46-2.51H61.89c-.278.786-.459 1.621-.459 2.505 0 4.141 3.351 7.495 7.486 7.495a7.494 7.494 0 0 0 7.495-7.495c0-4.009-3.136-7.246-7.081-7.466-.029 0-.507-.024-.556-.024L37.628 70l-3.229-10 47.007-3.438z"/></g></g></switch><text y="115" font-size="5" font-weight="bold" font-family="'Helvetica Neue', Helvetica, Arial-Unicode, Arial, Sans-serif">Created by Derrick Snider</text><text y="120" font-size="5" font-weight="bold" font-family="'Helvetica Neue', Helvetica, Arial-Unicode, Arial, Sans-serif">from the Noun Project</text></symbol><symbol viewBox="0 0 40 40" id="cart-icon-material" xmlns="http://www.w3.org/2000/svg"><path d="M12 32c-2.21 0-3.98 1.79-3.98 4s1.77 4 3.98 4 4-1.79 4-4-1.79-4-4-4zM0 0v4h4l7.19 15.17-2.7 4.9C8.18 24.65 8 25.3 8 26c0 2.21 1.79 4 4 4h24v-4H12.85c-.28 0-.5-.22-.5-.5 0-.09.02-.17.06-.24L14.2 22h14.9c1.5 0 2.81-.83 3.5-2.06l7.15-12.98c.16-.28.25-.61.25-.96a2 2 0 0 0-2-2H8.43l-1.9-4H0zm32 32c-2.21 0-3.98 1.79-3.98 4s1.77 4 3.98 4 4-1.79 4-4-1.79-4-4-4z"/></symbol><symbol viewBox="0 0 1600 1600" id="customer-icon" xmlns="http://www.w3.org/2000/svg"><path class="dcls-1" d="M1602.26 1602.26H1.51V1.51h1600.75zm-1377.62-8.95c.72-97.91 23.34-189.87 70-275.55s111-154.95 192.67-208 171.68-84 268.94-90.62c166.56-11.29 313.44 38 436.29 151.46s182.13 256.32 185.54 422.66h143.62c-.66-112-24.86-218.1-75.19-317.8-79.71-157.89-201.88-271.31-362.94-343.73 125-89.75 201.36-209.43 218.33-362.83 17-153.64-28.62-288.87-134.48-401.47C973-39.32 654.19-43.12 454.48 147.6 353.41 244.12 299.15 363.22 297.44 503c-2.21 181 76.12 322.51 221.1 429.06-131.25 57.94-237.77 145.8-317.49 265.23-79.84 119.63-119.36 251.8-120.5 396z"/><path d="M224.64 1593.31H80.55c1.15-144.22 40.66-276.39 120.5-396C280.77 1077.86 387.29 990 518.54 932.09 373.56 825.54 295.23 684 297.44 503c1.71-139.81 56-258.91 157-355.43C654.19-43.12 973-39.32 1167.43 167.43 1273.29 280 1318.91 415.26 1301.91 568.9c-17 153.4-93.33 273.08-218.33 362.83 161.06 72.42 283.22 185.84 362.94 343.73 50.33 99.7 74.53 205.76 75.19 317.8h-143.59c-3.41-166.34-62.73-309.19-185.54-422.66s-269.73-162.76-436.29-151.46c-97.27 6.6-187.09 37.46-268.94 90.62s-146 122.46-192.67 208-69.32 177.64-70.04 275.55zm576.18-720.1c198.51 0 356.6-157.31 360.5-352.32 4.1-204.95-157.94-365.2-354-368.13-203.33-3-363.15 157.79-366.34 353.76C437.61 711 601 873.17 800.82 873.21z"/><path class="dcls-1" d="M800.82 873.21C601 873.17 437.61 711 440.94 506.51c3.19-196 163-356.79 366.34-353.76 196.1 2.93 358.13 163.18 354 368.13-3.86 195.02-161.95 352.34-360.46 352.33z"/></symbol><symbol viewBox="0 0 1092 105.5" id="modern-thai-logo" xmlns="http://www.w3.org/2000/svg"><path d="M52 85.8L15 2.2H1V103h3.4V11.9l40 91.1h3.5l40.2-91.1V103h14.5V2.2H88.8zm105-34.9c-7.1 0-13.2 2.5-17.9 7.7-4.9 5.2-7.3 11.6-7.3 19.3 0 8.4 2.4 15 7.3 19.9 5 4.9 10.9 7.4 17.9 7.4s12.9-2.4 17.9-7.3c4.9-4.9 7.3-11.5 7.3-20 0-7.7-2.4-14-7.3-19.3-4.8-5.2-10.8-7.7-17.9-7.7zM168.6 97c-2.7 3.6-6.6 5.5-11.6 5.5-4.9 0-8.8-1.8-11.5-5.5-2.8-3.5-4.8-9.8-4.8-18.8 0-8.8 2-15.1 4.6-18.9s6.6-5.6 11.6-5.6 9 1.8 11.6 5.6c2.7 3.8 4.6 10.1 4.6 18.9.1 9-1.9 15.3-4.5 18.8zm83.6-78.3h-1.3v39.9c-2.8-2.7-5.7-4.6-8.7-5.9s-5.9-1.8-9-1.8c-7.3 0-13.2 2.5-17.8 7.6s-6.3 12.2-6.3 19.9c0 8 1.7 13.7 6.4 19 4.8 5.2 10.9 7.8 18.5 7.8 3.8 0 7-.8 9.8-2.4 2.8-1.5 5.2-3.8 7-6.9v9.2h8.8V18.7h-7.4c.1 0 .1.2 0 0zm-1.3 74.1c-.7 2.2-3.2 4.5-5.9 6.4-2.5 2.1-5.6 3.1-9 3.1-5.3 0-9.5-2.1-12.6-6.4-3.2-4.3-4.8-10.6-4.8-18.8 0-7.4 1.4-13.2 4.3-17.1 2.9-3.9 6.9-5.9 11.8-5.9 2.8 0 5.5.7 8.1 2 2.8 1.4 5.5 3.4 8 6v30.7zM333.4 70c0-4.9-1.4-9.1-5-13-3.5-4.1-8.7-6-15.3-6-7 0-12.9 2.7-17.5 7.8-4.6 5.3-7 11.9-7 19.9 0 5.6 1.3 10.4 3.6 14.3s5.5 6.9 9.2 9.1c3.9 2.1 7.8 3.2 12.2 3.2 4.5 0 8.8-1.3 12.6-3.5 2.2-1.4 4.1-3.1 5.5-5l-2.1-2.1c-3.2 4.9-8 7.3-14.3 7.3-5.5 0-9.7-2.2-12.3-6.6-2.8-4.5-4.2-11.2-4.2-20 0-1.1.1-2.9.3-5.3h34.3zm-20.8-16.4c10.9 0 13.3 11.1 13.3 13.9h-26.7c1.5-9.3 5.9-13.9 13.4-13.9zm54.6 9.2V49.5h-8.4V103h9.1V76.3c0-4.6.3-8.3 1-10.9.7-2.7 2.2-5.3 4.9-7.7 4.3-3.9 8.1-5.2 12.9-2.1l1.8-3.6c-7.5-4.2-18.2.3-21.3 10.8zm87.1-10.3c-2.5-2-6-2.9-10.2-2.9-3.8 0-7.3.8-10.5 2.7-3.2 1.8-6.3 4.5-9.1 8.1V49.5h-9V103h9V63.9c2.8-3.4 5.6-5.9 8.3-7.6 2.8-1.7 5.5-2.5 8-2.5 2.7 0 4.9.7 6.7 2.2 1.8 1.4 2.9 3.2 3.2 5.2.4 2.1.6 5.3.6 9.8v32h9.1V65.1c0-3.1-.4-4.1-.4-4.1-.5-3.9-3-6.7-5.7-8.5zM621.2 2.2h-98l-.2 3.4h41.6V103h14.6V5.6h42z"/><path d="M648.1 52.2c-2.7-1.8-6.2-2.7-10.5-2.7-3.6 0-7.1.8-10.2 2.7-3.1 1.7-5.9 4.3-8.4 7.8V16.6h-1.4c-.4.1-.7.1-1.1 0H610V103h9V64.8c2-3.8 4.2-6.7 6.9-8.5 2.5-2 5.5-2.9 8.7-2.9 2.8 0 5.2.7 7 2.1 2 1.3 3.1 2.9 3.6 5 .4 2.1.7 5.2.7 9.5v33h9V71.2c0-5.9-.4-10.1-1.3-12.6s-2.7-4.7-5.5-6.4zm67.4.7c-2.8-1.7-6.9-2.5-12.2-2.5-6.2 0-10.6 1.5-14 3.6 1.1 1 1.1 1 2.1 2 2.7-1.8 5.7-2.8 10.6-2.8 3.1 0 5.6.6 7.4 1.8 2 1.3 3.1 2.7 3.6 4.2.4 1.5.7 4.1.7 7.6v2.5l-9.7 3.9c-7.3 2.9-13 6-17.2 9.2-4.1 3.2-5 5.7-5 10.1s5.2 11.9 11.5 11.9c2.7 0 5.7-.7 9.1-2.2 3.4-1.4 7.1-3.6 11.3-6.6v8.8h8.8V68.1c0-4.3-.4-7.6-1.4-9.7-.7-2-2.6-3.8-5.6-5.5zm-1.6 39.3c-3.2 2.5-6.2 4.5-8.7 5.7-2.5 1.3-4.8 2-6.7 2-2.2 0-3.9-.8-5.3-2.4-1.4-1.5-2.1-3.6-2.1-6.3 0-6.6 5.3-12 16-16.4l6.9-2.7v20.1zm46-72.8c-1.8 0-3.2.7-4.6 2-1.3 1.4-1.8 2.9-1.8 4.6 0 2 .6 3.5 1.8 4.8 1.4 1.3 2.8 2 4.6 2 1.8 0 3.4-.7 4.6-2 1.3-1.3 2-2.8 2-4.8 0-1.7-.7-3.2-2-4.6-1.2-1.3-2.8-2-4.6-2zm-4.5 30.1V103h9V49.5h-9zm88.8-1.2V5.6h44.2V2.2h-58.8V103h14.6V51.8h29.1v-3.5h-19zm66.2 2.6c-7.1 0-13.2 2.5-17.9 7.7-4.9 5.2-7.3 11.6-7.3 19.3 0 8.4 2.4 15 7.3 19.9 5 4.9 10.9 7.4 17.9 7.4s12.9-2.4 17.9-7.3c4.9-4.9 7.3-11.5 7.3-20 0-7.7-2.4-14-7.3-19.3-4.7-5.2-10.7-7.7-17.9-7.7zM922 97c-2.7 3.6-6.6 5.5-11.6 5.5-4.9 0-8.8-1.8-11.5-5.5-2.8-3.5-4.8-9.8-4.8-18.8 0-8.8 2-15.1 4.6-18.9 2.7-3.8 6.6-5.6 11.6-5.6s9 1.8 11.6 5.6 4.6 10.1 4.6 18.9c.2 9-1.8 15.3-4.5 18.8zm66.4-46.1c-7.1 0-13.2 2.5-17.9 7.7-4.9 5.2-7.3 11.6-7.3 19.3 0 8.4 2.4 15 7.3 19.9 5 4.9 10.9 7.4 17.9 7.4s12.9-2.4 17.9-7.3c4.9-4.9 7.3-11.5 7.3-20 0-7.7-2.4-14-7.3-19.3-4.7-5.2-10.8-7.7-17.9-7.7zM1000 97c-2.7 3.6-6.6 5.5-11.6 5.5-4.9 0-8.8-1.8-11.5-5.5-2.8-3.5-4.8-9.8-4.8-18.8 0-8.8 2-15.1 4.6-18.9 2.7-3.8 6.6-5.6 11.6-5.6s9 1.8 11.6 5.6 4.6 10.1 4.6 18.9c.1 9-1.8 15.3-4.5 18.8zm83.7-78.3s0 .1-.1 0h-1.3v39.9c-2.8-2.7-5.7-4.6-8.7-5.9-2.9-1.3-5.9-1.8-9-1.8-7.3 0-13.2 2.5-17.8 7.6-4.6 5-6.3 12.2-6.3 19.9 0 8 1.7 13.7 6.4 19 4.8 5.2 10.9 7.8 18.5 7.8 3.8 0 7-.8 9.8-2.4 2.8-1.5 5.2-3.8 7-6.9v9.2h8.8V18.7h-7.3zm-1.4 74.1c-.7 2.2-3.2 4.5-5.9 6.4-2.5 2.1-5.6 3.1-9 3.1-5.3 0-9.5-2.1-12.6-6.4-3.2-4.3-4.8-10.6-4.8-18.8 0-7.4 1.4-13.2 4.3-17.1 2.9-3.9 6.9-5.9 11.8-5.9 2.8 0 5.5.7 8.1 2 2.8 1.4 5.5 3.4 8 6v30.7z"/></symbol><symbol viewBox="0 0 857 88.5" id="modern-thai-logo-choco-font-optimized" xmlns="http://www.w3.org/2000/svg"><path d="M74.2 38.2c-1.6-2-3.7-3.6-6.2-4.9-2.5-1.3-5.4-1.9-8.8-1.9-4.1 0-7.6 1-10.5 3.1-2.9 2.1-5.2 4.9-6.8 8.3-1.5-3.3-3.8-6-6.9-8.1-3.1-2.1-6.8-3.2-10.9-3.2-3.4 0-6.3.8-8.7 2.4-2.5 1.6-4.5 3.5-6.1 5.9L9.2 34c0-.6-.2-1-.5-1.3-.3-.3-.7-.4-1-.4H4.6c-1.1 0-1.6.6-1.6 1.8v50c0 1.3.7 2 2.1 2h2.2c1.3 0 2-.7 2-2V52c0-2 .4-3.9 1.2-5.6.8-1.8 1.8-3.3 3.1-4.6 1.3-1.3 2.9-2.4 4.6-3.1 1.8-.8 3.6-1.2 5.6-1.2s3.8.4 5.5 1.1c1.7.7 3.2 1.7 4.5 3 1.3 1.3 2.3 2.8 3 4.5.7 1.7 1.1 3.6 1.1 5.6v32.2c0 1.4.7 2.1 2.1 2.1h2.2c1.4 0 2.1-.7 2.1-2.2V54.7c0-2.3.3-4.5 1-6.6.7-2.1 1.6-3.9 2.9-5.5 1.2-1.6 2.8-2.8 4.6-3.7 1.8-.9 4-1.4 6.4-1.4 2 0 3.8.4 5.5 1.1 1.7.7 3.1 1.8 4.3 3.1 1.2 1.3 2.2 2.9 2.9 4.6.7 1.8 1 3.6 1 5.6v32c0 1.4.7 2.1 2.2 2.1h2c1.5 0 2.2-.7 2.2-2.2V52.1c0-2.4-.4-4.9-1.2-7.3-1-2.5-2.2-4.7-3.9-6.6zm64.1 1.1c-2.4-2.6-5.3-4.6-8.6-6-3.3-1.5-6.9-2.2-10.8-2.2-3.9 0-7.5.7-10.8 2.2-3.3 1.5-6.2 3.5-8.6 6-2.4 2.6-4.3 5.6-5.7 9-1.4 3.4-2.1 7.1-2.1 10.9 0 3.9.7 7.5 2.1 10.9 1.4 3.4 3.3 6.4 5.7 9 2.4 2.6 5.3 4.6 8.6 6s6.9 2.2 10.8 2.2c3.9 0 7.5-.7 10.8-2.2 3.3-1.5 6.2-3.5 8.6-6 2.4-2.6 4.3-5.6 5.7-9 1.4-3.4 2.1-7.1 2.1-10.9 0-3.9-.7-7.5-2.1-10.9-1.4-3.5-3.3-6.5-5.7-9zm.1 28.4c-1.1 2.7-2.5 5-4.4 7-1.9 2-4.1 3.6-6.7 4.7-2.6 1.2-5.4 1.8-8.4 1.8s-5.8-.6-8.4-1.8c-2.6-1.2-4.8-2.8-6.7-4.7-1.9-2-3.3-4.3-4.4-7-1.1-2.7-1.6-5.5-1.6-8.5s.5-5.8 1.6-8.5 2.5-5 4.4-7c1.9-2 4.1-3.6 6.7-4.7 2.6-1.2 5.4-1.8 8.4-1.8s5.8.6 8.4 1.8c2.6 1.2 4.8 2.8 6.7 4.7 1.9 2 3.3 4.3 4.4 7 1.1 2.7 1.6 5.5 1.6 8.5s-.6 5.8-1.6 8.5zm67-63.3h-2.3c-1.4 0-2.1.7-2.1 2.2v37.2c-1.7-3.5-4.2-6.5-7.5-9s-7.5-3.7-12.5-3.7c-3.6 0-7 .7-10.1 2.2-3.2 1.5-5.9 3.5-8.2 6-2.3 2.5-4.1 5.5-5.5 9-1.4 3.4-2 7.1-2 11 0 3.9.7 7.5 2 10.9 1.4 3.4 3.2 6.4 5.5 8.9s5 4.5 8.2 6c3.2 1.5 6.5 2.2 10.1 2.2 3.2 0 6-.4 8.3-1.2 2.3-.8 4.3-1.7 5.8-2.8 1.6-1.1 2.8-2.2 3.8-3.4 1-1.2 1.6-2.2 2.1-3v6.8c0 1.5.7 2.3 2.1 2.3h2.3c.8 0 1.3-.2 1.6-.6.3-.4.4-1 .4-1.7V6.6c0-.7-.1-1.2-.4-1.6-.2-.4-.8-.6-1.6-.6zm-5.5 63.2c-1.1 2.7-2.5 5-4.3 7-1.8 2-4 3.5-6.4 4.7-2.4 1.2-5 1.8-7.7 1.8s-5.3-.6-7.7-1.8c-2.4-1.2-4.5-2.7-6.3-4.7-1.8-2-3.2-4.3-4.3-7-1.1-2.7-1.6-5.5-1.6-8.5s.5-5.8 1.6-8.5 2.5-5 4.3-7c1.8-2 3.9-3.5 6.3-4.7 2.4-1.2 5-1.8 7.7-1.8s5.3.6 7.7 1.8c2.4 1.2 4.5 2.7 6.4 4.7 1.8 2 3.3 4.3 4.3 7 1.1 2.7 1.6 5.5 1.6 8.5s-.6 5.8-1.6 8.5zM263.2 39c-2.3-2.5-4.9-4.4-8-5.8-3-1.4-6.3-2.1-9.7-2.1-3.6 0-7 .7-10.1 2.2-3.2 1.5-5.9 3.5-8.3 6-2.3 2.6-4.2 5.6-5.6 9-1.4 3.4-2 7.1-2 10.9 0 3.8.7 7.4 2 10.8 1.4 3.4 3.2 6.4 5.6 9 2.4 2.6 5.2 4.6 8.4 6 3.2 1.5 6.7 2.2 10.3 2.2 3.8 0 7.3-.7 10.6-2.2 3.2-1.5 6.2-3.4 8.8-5.7.9-.8 1.4-1.4 1.4-1.9.1-.4-.1-1-.7-1.5l-1.3-1.9c-.4-.4-.8-.5-1.3-.5s-1 .3-1.5.8c-2 2.1-4.3 3.7-7.1 4.9-2.8 1.2-5.7 1.9-8.7 1.9h-.2c-2.6-.1-5.1-.6-7.5-1.6-2.3-1-4.4-2.4-6.2-4.2-1.8-1.8-3.2-3.8-4.3-6.2-1.1-2.4-1.7-4.9-1.9-7.6h40.5c1.2 0 2.3-.2 3.1-.7.8-.4 1.2-1.3 1.2-2.6 0-3.7-.7-7.3-2-10.6-1.4-3.3-3.3-6.2-5.5-8.6zm-37.1 16.3c.4-2.6 1.2-5.1 2.4-7.3 1.1-2.2 2.5-4.1 4.2-5.7 1.7-1.6 3.6-2.9 5.7-3.8 2.1-.9 4.4-1.4 6.8-1.4 2.3 0 4.6.5 6.8 1.4 2.2.9 4.1 2.2 5.8 3.8 1.7 1.6 3.2 3.5 4.3 5.8 1.2 2.2 1.9 4.6 2.2 7.2h-38.2zm87-20.9c-1.2-.9-2.9-1.6-4.9-2.2-2-.6-3.8-.9-5.4-.9-3.5 0-6.5.8-9.1 2.5-2.5 1.7-4.3 3.8-5.3 6.5l-.1-6c-.1-.6-.2-1.1-.4-1.5-.2-.4-.6-.6-1.3-.6h-2.8c-1.2 0-1.8.8-1.8 2.5v49.4c0 1.2.7 1.9 2 1.9h2.3c1.3 0 2-.7 2-2V54.3c0-2.1.3-4.2 1-6.2s1.7-3.8 2.9-5.3 2.7-2.8 4.4-3.7c1.7-1 3.6-1.4 5.6-1.4 1.5 0 2.9.3 4.3.8s2.6 1.2 3.6 1.8c.2.1.6.2 1 .3.5 0 .9-.2 1.3-.6l1.6-2.4c.4-.6.4-1.2 0-1.7-.2-.7-.5-1.1-.9-1.5zm50.6 3.3c-2-2.1-4.3-3.7-7-4.9-2.7-1.2-5.6-1.8-8.8-1.8-3.7 0-7.1.9-10.2 2.8-3 1.8-5.5 4.1-7.3 6.8l-.2-6.8c0-.4-.1-.7-.3-1-.2-.3-.6-.5-1.2-.5h-3.1c-1.1 0-1.6.5-1.6 1.4V84c0 .7.1 1.2.3 1.5.2.3.7.5 1.4.5h2.9c.7 0 1.1-.2 1.3-.5.2-.3.3-.8.3-1.5V53c0-2.2.5-4.3 1.4-6.2 1-1.9 2.2-3.6 3.7-5.1s3.3-2.6 5.4-3.4c2.1-.8 4.2-1.2 6.4-1.2 2.3 0 4.4.4 6.4 1.3 2 .8 3.7 2 5.2 3.5s2.7 3.2 3.6 5.2c.9 2 1.3 4.1 1.3 6.4v30.4c0 .7.1 1.3.3 1.6.2.3.7.5 1.5.5h2.9c1.2 0 1.8-.7 1.8-2.2v-29c0-3.4-.6-6.6-1.7-9.6-1.2-2.9-2.7-5.5-4.7-7.5zm76.6-5.6h-9.6V15.8c0-.7-.1-1.2-.3-1.8-.2-.5-.7-.7-1.4-.6l-2.8.4c-1.2.1-1.9.8-1.9 1.9V32h-7.6c-.7 0-1.3.1-1.6.4-.3.3-.5.8-.5 1.6v2c0 .8.2 1.3.5 1.6.3.3.9.4 1.6.4h7.6v33.8c0 3 .3 5.5 1 7.4.7 1.9 1.6 3.4 2.8 4.5 1.2 1.1 2.6 1.9 4.2 2.3 1.6.4 3.3.6 5.2.6h1.6c.7 0 1.4-.1 1.9-.3.5-.2.8-.6.8-1.4V82c0-.8-.2-1.3-.7-1.4-.5-.1-1-.2-1.6-.2h-2.1c-2.3-.2-4-1-5.1-2.3-1.1-1.3-1.7-3.9-1.7-7.8V38h9.6c1.5 0 2.2-.7 2.2-2.1v-1.8c.1-1.3-.7-2-2.1-2zm56.3 5.9c-1.8-2.2-4.1-3.9-6.7-5.1-2.6-1.2-5.6-1.9-8.9-1.9-3.7 0-7.2.9-10.4 2.6-3.2 1.7-5.7 3.9-7.5 6.5V6.5c0-1.4-.6-2.1-1.9-2.1h-2.6c-1.2 0-1.8.7-1.8 2.1V84c0 1.3.7 2 2 2h2.3c1.3 0 2-.7 2-2V53.2c0-2.2.5-4.3 1.5-6.2 1-1.9 2.4-3.6 4-5.1 1.6-1.4 3.5-2.5 5.7-3.4 2.1-.8 4.3-1.2 6.5-1.2 2.3 0 4.3.4 6.2 1.3 1.9.9 3.5 2.1 4.8 3.5 1.4 1.5 2.4 3.2 3.1 5.1.7 1.9 1.1 4 1.1 6.2V84c0 1.3.6 2 1.9 2h2.5c1.2 0 1.9-.7 1.9-2V54.8c0-3.3-.5-6.4-1.5-9.2-1-2.9-2.4-5.5-4.2-7.6zm68.8-5.8h-2.3c-.8 0-1.3.2-1.5.5-.2.4-.4.9-.4 1.7l-.2 9.3c-.5-1.9-1.4-3.6-2.6-5.2-1.2-1.5-2.8-2.9-4.5-4-1.8-1.1-3.7-2-5.9-2.6-2.2-.6-4.5-.9-6.9-.9-3.7 0-7.2.7-10.5 2.2-3.2 1.5-6 3.5-8.4 6-2.4 2.6-4.2 5.6-5.6 9-1.3 3.4-2 7.1-2 11 0 3.9.7 7.5 2 10.9 1.4 3.4 3.2 6.4 5.6 8.9 2.3 2.5 5.1 4.5 8.4 6 3.2 1.5 6.7 2.2 10.5 2.2 4.8 0 9.1-1.1 12.7-3.4 3.6-2.3 6-5.5 7.4-9.6V84c0 .7.1 1.2.3 1.5.2.3.7.4 1.5.4h2.6c1.2 0 1.9-.6 1.9-1.8V34.4c-.3-1.5-.9-2.2-2.1-2.2zm-6 35.6c-1 2.6-2.4 5-4.1 6.9-1.8 2-3.9 3.5-6.3 4.7-2.5 1.1-5.2 1.7-8.1 1.7-2.9 0-5.6-.6-8.1-1.8-2.5-1.2-4.6-2.8-6.4-4.7-1.8-2-3.2-4.3-4.2-6.9-1-2.6-1.5-5.5-1.5-8.5s.5-5.8 1.5-8.5 2.4-5 4.2-7c1.8-2 3.9-3.6 6.4-4.8 2.5-1.2 5.2-1.8 8.1-1.8 2.9 0 5.6.6 8.1 1.8 2.5 1.2 4.6 2.8 6.3 4.8 1.8 2 3.1 4.4 4.1 7 1 2.7 1.5 5.5 1.5 8.5 0 3.1-.5 6-1.5 8.6zm27.9-56.5c-1.4 0-2.6.5-3.6 1.5s-1.5 2.2-1.5 3.7c0 1.4.5 2.6 1.5 3.6s2.2 1.5 3.6 1.5c1.5 0 2.7-.5 3.7-1.5s1.5-2.2 1.5-3.6c0-1.5-.5-2.7-1.5-3.7s-2.2-1.5-3.7-1.5zm1.2 20.9h-2.2c-1.4 0-2.1.7-2.1 2V84c0 1.3.7 2 2.1 2h2.2c1.4 0 2.1-.7 2.1-2V34.2c0-1.3-.7-2-2.1-2zM663.1 4c-5.3 0-9.4 1.5-12.4 4.6s-4.5 7.4-4.5 12.9V32h-6.9c-1.5 0-2.2.7-2.2 2.2v1.4c0 1.5.7 2.3 2.2 2.3h6.9v46c0 1.4.7 2.1 2 2.1h2.1c.6 0 1.1-.2 1.6-.5.5-.4.7-.9.7-1.5V38h9.8c1.4 0 2.1-.8 2.1-2.3v-1.4c0-1.5-.7-2.2-2.1-2.2h-9.8V21.8c0-3.7 1-6.6 2.9-8.5 1.9-1.9 4.5-2.9 7.8-2.9.6 0 1.1-.2 1.5-.6.4-.4.6-.9.6-1.5V6.5c0-1.6-.7-2.5-2.3-2.5zm55.6 35.3c-2.4-2.6-5.3-4.6-8.6-6-3.3-1.5-6.9-2.2-10.8-2.2-3.9 0-7.5.7-10.8 2.2-3.3 1.5-6.2 3.5-8.6 6-2.4 2.6-4.3 5.6-5.7 9-1.4 3.4-2.1 7.1-2.1 10.9 0 3.9.7 7.5 2.1 10.9 1.4 3.4 3.3 6.4 5.7 9 2.4 2.6 5.3 4.6 8.6 6 3.3 1.5 6.9 2.2 10.8 2.2 3.9 0 7.5-.7 10.8-2.2 3.3-1.5 6.2-3.5 8.6-6 2.4-2.6 4.3-5.6 5.7-9 1.4-3.4 2.1-7.1 2.1-10.9 0-3.9-.7-7.5-2.1-10.9-1.4-3.5-3.3-6.5-5.7-9zm0 28.4c-1.1 2.7-2.5 5-4.4 7-1.9 2-4.1 3.6-6.7 4.7-2.6 1.2-5.4 1.8-8.4 1.8s-5.8-.6-8.4-1.8c-2.6-1.2-4.8-2.8-6.7-4.7-1.9-2-3.3-4.3-4.4-7-1.1-2.7-1.6-5.5-1.6-8.5s.5-5.8 1.6-8.5 2.5-5 4.4-7c1.9-2 4.1-3.6 6.7-4.7 2.6-1.2 5.4-1.8 8.4-1.8s5.8.6 8.4 1.8c2.6 1.2 4.8 2.8 6.7 4.7 1.9 2 3.3 4.3 4.4 7 1.1 2.7 1.6 5.5 1.6 8.5s-.5 5.8-1.6 8.5zm64.1-28.4c-2.4-2.6-5.3-4.6-8.6-6-3.3-1.5-6.9-2.2-10.8-2.2-3.9 0-7.5.7-10.8 2.2-3.3 1.5-6.2 3.5-8.6 6-2.4 2.6-4.3 5.6-5.7 9-1.4 3.4-2.1 7.1-2.1 10.9 0 3.9.7 7.5 2.1 10.9 1.4 3.4 3.3 6.4 5.7 9 2.4 2.6 5.3 4.6 8.6 6 3.3 1.5 6.9 2.2 10.8 2.2 3.9 0 7.5-.7 10.8-2.2 3.3-1.5 6.2-3.5 8.6-6 2.4-2.6 4.3-5.6 5.7-9 1.4-3.4 2.1-7.1 2.1-10.9 0-3.9-.7-7.5-2.1-10.9-1.4-3.5-3.3-6.5-5.7-9zm.1 28.4c-1.1 2.7-2.5 5-4.4 7-1.9 2-4.1 3.6-6.7 4.7-2.6 1.2-5.4 1.8-8.4 1.8s-5.8-.6-8.4-1.8c-2.6-1.2-4.8-2.8-6.7-4.7-1.9-2-3.3-4.3-4.4-7-1.1-2.7-1.6-5.5-1.6-8.5s.5-5.8 1.6-8.5 2.5-5 4.4-7c1.9-2 4.1-3.6 6.7-4.7 2.6-1.2 5.4-1.8 8.4-1.8s5.8.6 8.4 1.8c2.6 1.2 4.8 2.8 6.7 4.7 1.9 2 3.3 4.3 4.4 7 1.1 2.7 1.6 5.5 1.6 8.5s-.6 5.8-1.6 8.5zM851.5 5c-.3-.4-.8-.6-1.6-.6h-2.3c-1.4 0-2.1.7-2.1 2.2v37.2c-1.7-3.5-4.2-6.5-7.5-9s-7.5-3.7-12.5-3.7c-3.6 0-7 .7-10.1 2.2-3.2 1.5-5.9 3.5-8.2 6-2.3 2.5-4.1 5.5-5.5 9-1.4 3.4-2 7.1-2 11 0 3.9.7 7.5 2 10.9 1.4 3.4 3.2 6.4 5.5 8.9s5 4.5 8.2 6c3.2 1.5 6.5 2.2 10.1 2.2 3.2 0 6-.4 8.3-1.2 2.3-.8 4.3-1.7 5.8-2.8 1.6-1.1 2.8-2.2 3.8-3.4 1-1.2 1.7-2.2 2.1-3v6.8c0 1.5.7 2.3 2.1 2.3h2.3c.8 0 1.3-.2 1.6-.6.3-.4.4-1 .4-1.7V6.6c0-.7-.1-1.2-.4-1.6zm-7.2 62.6c-1.1 2.7-2.5 5-4.3 7-1.8 2-4 3.5-6.4 4.7-2.4 1.2-5 1.8-7.7 1.8s-5.3-.6-7.7-1.8c-2.4-1.2-4.5-2.7-6.3-4.7-1.8-2-3.2-4.3-4.3-7-1.1-2.7-1.6-5.5-1.6-8.5s.5-5.8 1.6-8.5 2.5-5 4.3-7c1.8-2 3.9-3.5 6.3-4.7 2.4-1.2 5-1.8 7.7-1.8s5.3.6 7.7 1.8c2.4 1.2 4.5 2.7 6.4 4.7 1.8 2 3.3 4.3 4.3 7 1.1 2.7 1.6 5.5 1.6 8.5s-.5 5.8-1.6 8.5z"/></symbol><symbol viewBox="0 0 538 88.5" id="ois-kitchen-choco-font" xmlns="http://www.w3.org/2000/svg"><path d="M45.5 39.3c-2.4-2.6-5.3-4.6-8.6-6-3.4-1.6-7-2.3-10.9-2.3-3.9 0-7.5.7-10.8 2.2-3.3 1.5-6.2 3.5-8.6 6-2.4 2.6-4.3 5.6-5.7 9-1.4 3.4-2.1 7.1-2.1 10.9 0 3.9.7 7.5 2.1 10.9 1.4 3.4 3.3 6.4 5.7 9 2.4 2.6 5.3 4.6 8.6 6s6.9 2.2 10.8 2.2c3.9 0 7.5-.7 10.8-2.2 3.3-1.5 6.2-3.5 8.6-6 2.4-2.6 4.3-5.6 5.7-9 1.4-3.4 2.1-7.1 2.1-10.9 0-3.9-.7-7.5-2.1-10.9-1.3-3.4-3.2-6.4-5.6-8.9zm0 28.4c-1.1 2.7-2.5 5-4.4 7-1.9 2-4.1 3.6-6.7 4.7-2.6 1.2-5.4 1.8-8.4 1.8s-5.8-.6-8.4-1.8c-2.6-1.2-4.8-2.8-6.7-4.7-1.9-2-3.3-4.3-4.4-7-1.1-2.7-1.6-5.5-1.6-8.5s.5-5.8 1.6-8.5 2.5-5 4.4-7c1.9-2 4.1-3.6 6.7-4.7 2.6-1.2 5.4-1.8 8.4-1.8s5.8.6 8.4 1.8c2.6 1.2 4.8 2.8 6.7 4.7 1.9 2 3.3 4.3 4.4 7 1.1 2.7 1.6 5.5 1.6 8.5s-.5 5.8-1.6 8.5zm25.7-35.5H69c-1.4 0-2.1.7-2.1 2V84c0 1.3.7 2 2.1 2h2.2c1.4 0 2.1-.7 2.1-2V34.2c0-1.3-.7-2-2.1-2zM70 11.3c-1.4 0-2.6.5-3.6 1.5s-1.5 2.2-1.5 3.7c0 1.4.5 2.6 1.5 3.6s2.2 1.5 3.6 1.5c1.5 0 2.7-.5 3.7-1.5s1.5-2.2 1.5-3.6c0-1.5-.5-2.7-1.5-3.7s-2.2-1.5-3.7-1.5zm24.1-7.6c-1.5 0-2.6.4-3.4 1.3-.8.9-1.2 2.1-1.2 3.5s.4 2.5 1.3 3.4c.8.9 1.9 1.4 3.2 1.6v.5c0 .7-.1 1.2-.4 1.7-.3.4-.6.9-.9 1.4-.1.1-.2.4-.4.8s-.1.7.3 1.1l1.4 1.2c.4.3.7.4 1 .2.3-.1.6-.4.8-.7.2-.2.5-.6.9-1s.8-1 1.2-1.8c.4-.8.8-1.7 1-2.9.3-1.2.4-2.6.4-4.3 0-1.8-.5-3.3-1.4-4.5-.8-.9-2.1-1.5-3.8-1.5zm36.4 51c-1.1-.3-2.3-.7-3.5-1.1-1.2-.4-2.3-1-3.4-1.8-1-.7-1.9-1.6-2.5-2.5-.7-1-1-2.1-1-3.4 0-2.7 1-4.9 3-6.5 2-1.7 4.6-2.5 7.6-2.5 2.5 0 4.7.6 6.7 1.8 1.9 1.2 3.5 2.7 4.7 4.6.1.3.3.5.4.7.1.2.2.3.4.5.7.7 1.6.8 2.5.1l2-1.2c.6-.4.9-.8 1-1.3.1-.5 0-1-.3-1.5-1.9-3.4-4.3-5.9-7.3-7.4-2.9-1.5-6.3-2.3-10-2.3-5.1 0-9.1 1.4-12.2 4.1-3.1 2.8-4.6 6.4-4.6 10.8 0 2.1.4 3.9 1.3 5.6.9 1.6 2 3.1 3.5 4.3 1.4 1.2 3.1 2.3 5 3.2 1.9.9 3.9 1.6 5.9 2.1 1.5.4 3.1.8 4.7 1.4 1.6.5 3.1 1.3 4.3 2.1 1.3.9 2.3 1.9 3.2 3.1.8 1.2 1.3 2.5 1.3 4.1 0 1.6-.4 3-1.3 4.2-.8 1.2-1.9 2.2-3.2 3-1.3.8-2.7 1.3-4.1 1.7-1.5.4-2.9.5-4.2.5-1 0-2-.2-3.2-.5-1.2-.3-2.3-.8-3.5-1.4-1.1-.6-2.2-1.3-3.1-2.2-1-.9-1.7-1.9-2.3-3.1l-.3-.5c-.5-1.2-1.4-1.5-2.5-1.1l-2.1 1c-1.2.4-1.6 1.3-1.2 2.6 1.3 3.7 3.6 6.5 7 8.4 3.3 1.9 7.1 2.9 11.3 2.9 2.6 0 5-.3 7.3-1s4.3-1.7 6.1-3c1.8-1.3 3.2-3 4.2-4.9 1-1.9 1.5-4.2 1.5-6.7-.1-8.1-6.4-13.7-19.1-16.9zm87.3-3.1l17.7-17.1c.4-.4.6-.9.6-1.5-.1-.6-.5-.8-1.3-.8h-4.2c-.7 0-1.3.1-1.6.3-.3.2-.6.4-.9.7l-23.9 23.2V6.5c0-1.4-.6-2.1-1.8-2.1h-2.8c-1.2 0-1.8.7-1.8 2.1V84c0 1.3.7 2 2 2h2.2c1.4 0 2.1-.7 2.1-2V64.9l9.1-8.8 24.1 28.4c.4.4.7.7 1.1 1 .4.3.8.5 1.3.5h4.1c.7 0 1.1-.2 1.4-.7.3-.5.1-1.1-.4-1.9l-27-31.8zm40.6-40.3c-1.4 0-2.6.5-3.6 1.5s-1.5 2.2-1.5 3.7c0 1.4.5 2.6 1.5 3.6s2.2 1.5 3.6 1.5c1.5 0 2.7-.5 3.7-1.5s1.5-2.2 1.5-3.6c0-1.5-.5-2.7-1.5-3.7s-2.2-1.5-3.7-1.5zm1.2 20.9h-2.2c-1.4 0-2.1.7-2.1 2V84c0 1.3.7 2 2.1 2h2.2c1.4 0 2.1-.7 2.1-2V34.2c0-1.3-.7-2-2.1-2zm39.3-.1h-9.6V15.8c0-.7-.1-1.2-.3-1.8-.2-.5-.7-.7-1.4-.6l-2.8.4c-1.2.1-1.9.8-1.9 1.9V32h-7.6c-.7 0-1.3.1-1.6.4-.3.3-.5.8-.5 1.6v2c0 .8.2 1.3.5 1.6.3.3.9.4 1.6.4h7.6v33.8c0 3 .3 5.5 1 7.4.7 1.9 1.6 3.4 2.8 4.5 1.2 1.1 2.6 1.9 4.2 2.3 1.6.4 3.3.6 5.2.6h1.6c.7 0 1.4-.1 1.9-.3.5-.2.8-.6.8-1.4V82c0-.8-.2-1.3-.7-1.4-.5-.1-1-.2-1.6-.2H296c-2.3-.2-4-1-5.1-2.3-1.1-1.3-1.6-3.9-1.6-7.8V38h9.6c1.5 0 2.2-.7 2.2-2.1v-1.8c0-1.3-.7-2-2.2-2zm23.4 11.2c2-1.9 4.4-3.4 7.1-4.4 2.7-1.1 5.6-1.6 8.6-1.6 3.3 0 6.2.7 8.8 2 2.6 1.3 4.8 2.8 6.7 4.4.4.2.7.3 1.1.4.4 0 .6-.1.8-.4l2.2-2.4c.6-.7.5-1.4-.3-2.1-1.1-1-2.4-1.9-3.8-2.8-1.4-.9-3-1.8-4.6-2.6s-3.4-1.4-5.2-1.9c-1.8-.5-3.6-.7-5.6-.7-4 0-7.7.7-11.1 2.1-3.4 1.4-6.5 3.4-9 5.9-2.6 2.5-4.6 5.4-6 8.9-1.5 3.4-2.2 7.1-2.2 10.9 0 4 .8 7.8 2.3 11.2 1.5 3.4 3.6 6.4 6.2 8.9s5.6 4.5 9 5.9c3.4 1.4 6.9 2.2 10.5 2.3 3.3.1 6.7-.6 10.3-2 3.6-1.4 6.6-3.4 9.2-6 .4-.4.6-.8.5-1.1-.1-.3-.2-.5-.3-.7l-1.9-2.8c-.1-.1-.4-.3-.8-.4-.4-.1-.7 0-1.1.3-2.3 2.1-4.9 3.7-7.7 4.8-2.8 1.1-5.4 1.7-7.9 1.7-3 0-5.9-.5-8.6-1.6-2.7-1.1-5.1-2.5-7.1-4.4-2-1.9-3.6-4.2-4.8-6.9-1.2-2.7-1.8-5.7-1.8-9.1 0-3.2.6-6.1 1.8-8.8s2.7-5.1 4.7-7zm88-5.3c-1.8-2.2-4.1-3.9-6.7-5.1-2.6-1.2-5.6-1.9-8.9-1.9-3.7 0-7.2.9-10.4 2.6-3.2 1.7-5.7 3.9-7.5 6.5V6.5c0-1.4-.6-2.1-1.9-2.1h-2.6c-1.2 0-1.8.7-1.8 2.1V84c0 1.3.7 2 2 2h2.3c1.3 0 2-.7 2-2V53.2c0-2.2.5-4.3 1.5-6.2 1-1.9 2.4-3.6 4-5.1 1.6-1.4 3.5-2.5 5.7-3.4 2.1-.8 4.3-1.2 6.5-1.2 2.3 0 4.3.4 6.2 1.3 1.9.9 3.5 2.1 4.8 3.5 1.4 1.5 2.4 3.2 3.1 5.1.7 1.9 1.1 4 1.1 6.2V84c0 1.3.6 2 1.9 2h2.5c1.2 0 1.9-.7 1.9-2V54.8c0-3.3-.5-6.4-1.5-9.2-.9-2.9-2.3-5.5-4.2-7.6zm62.1 1c-2.3-2.5-4.9-4.4-8-5.8-3-1.4-6.3-2.1-9.7-2.1-3.6 0-7 .7-10.1 2.2-3.2 1.5-5.9 3.5-8.3 6-2.3 2.6-4.2 5.6-5.6 9-1.4 3.4-2 7.1-2 10.9 0 3.8.7 7.4 2 10.8 1.4 3.4 3.2 6.4 5.6 9 2.4 2.6 5.2 4.6 8.4 6 3.2 1.5 6.7 2.2 10.3 2.2 3.8 0 7.3-.7 10.6-2.2 3.2-1.5 6.2-3.4 8.8-5.7.9-.8 1.4-1.4 1.4-1.9.1-.4-.1-1-.7-1.5l-1.3-1.9c-.4-.4-.8-.5-1.3-.5s-1 .3-1.5.8c-2 2.1-4.3 3.7-7.1 4.9-2.8 1.2-5.7 1.9-8.7 1.9h-.2c-2.6-.1-5.1-.6-7.5-1.6-2.3-1-4.4-2.4-6.2-4.2-1.8-1.8-3.2-3.8-4.3-6.2-1.1-2.4-1.7-4.9-1.9-7.6h40.5c1.2 0 2.3-.2 3.1-.7.8-.4 1.2-1.3 1.2-2.6 0-3.7-.7-7.3-2-10.6-1.4-3.3-3.2-6.2-5.5-8.6zm-37.1 16.3c.4-2.6 1.2-5.1 2.4-7.3 1.1-2.2 2.5-4.1 4.2-5.7 1.7-1.6 3.6-2.9 5.7-3.8 2.1-.9 4.4-1.4 6.8-1.4 2.3 0 4.6.5 6.8 1.4 2.2.9 4.1 2.2 5.8 3.8 1.7 1.6 3.2 3.5 4.3 5.8 1.2 2.2 1.9 4.6 2.2 7.2h-38.2zm100.4-10.1c-1.1-2.9-2.7-5.4-4.7-7.5-2-2.1-4.3-3.7-7-4.9-2.7-1.2-5.6-1.8-8.8-1.8-3.7 0-7.1.9-10.2 2.8-3 1.8-5.5 4.1-7.3 6.8l-.2-6.8c0-.4-.1-.7-.3-1-.2-.3-.6-.5-1.2-.5h-3c-1.1 0-1.6.5-1.6 1.4V84c0 .7.1 1.2.3 1.5.2.3.7.5 1.4.5h2.9c.7 0 1.1-.2 1.3-.5.2-.3.3-.8.3-1.5V53c0-2.2.5-4.3 1.4-6.2 1-1.9 2.2-3.6 3.7-5.1s3.3-2.6 5.4-3.4c2.1-.8 4.2-1.2 6.4-1.2 2.3 0 4.4.4 6.4 1.3 2 .8 3.7 2 5.2 3.5s2.7 3.2 3.6 5.2c.9 2 1.3 4.1 1.3 6.4v30.4c0 .7.1 1.3.3 1.6.2.3.7.5 1.5.5h2.9c1.2 0 1.8-.7 1.8-2.2v-29c-.1-3.5-.7-6.7-1.8-9.6z"/></symbol></svg>