<svg id="Layer_1" data-name="Layer 1" xmlns="http://www.w3.org/2000/svg" viewBox="0 0 1600 1600"><title>Artboard 1</title><path class="cls-1" d="M1602.26,1602.26H1.51V1.51H1602.26Zm-1377.62-8.95c.72-97.91,23.34-189.87,70-275.55s111-154.95,192.67-208,171.68-84,268.94-90.62c166.56-11.29,313.44,38,436.29,151.46s182.13,256.32,185.54,422.66H1521.7c-.66-112-24.86-218.1-75.19-317.8-79.71-157.89-201.88-271.31-362.94-343.73,125-89.75,201.36-209.43,218.33-362.83,17-153.64-28.62-288.87-134.48-401.47C973-39.32,654.19-43.12,454.48,147.6,353.41,244.12,299.15,363.22,297.44,503c-2.21,181,76.12,322.51,221.1,429.06C387.29,990,280.77,1077.86,201.05,1197.29c-79.84,119.63-119.36,251.8-120.5,396Z"/><path d="M224.64,1593.31H80.55c1.15-144.22,40.66-276.39,120.5-396C280.77,1077.86,387.29,990,518.54,932.09,373.56,825.54,295.23,684,297.44,503c1.71-139.81,56-258.91,157-355.43C654.19-43.12,973-39.32,1167.43,167.43,1273.29,280,1318.91,415.26,1301.91,568.9c-17,153.4-93.33,273.08-218.33,362.83,161.06,72.42,283.22,185.84,362.94,343.73,50.33,99.7,74.53,205.76,75.19,317.8H1378.12c-3.41-166.34-62.73-309.19-185.54-422.66s-269.73-162.76-436.29-151.46c-97.27,6.6-187.09,37.46-268.94,90.62s-146,122.46-192.67,208S225.36,1495.4,224.64,1593.31Zm576.18-720.1c198.51,0,356.6-157.31,360.5-352.32,4.1-204.95-157.94-365.2-354-368.13-203.33-3-363.15,157.79-366.34,353.76C437.61,711,601,873.17,800.82,873.21Z"/><path class="cls-1" d="M800.82,873.21C601,873.17,437.61,711,440.94,506.51c3.19-196,163-356.79,366.34-353.76,196.1,2.93,358.13,163.18,354,368.13C1157.42,715.9,999.33,873.22,800.82,873.21Z"/></svg>