<svg xmlns="http://www.w3.org/2000/svg" viewBox="0 0 446.9 420.6"><path d="M444.3 80.2c-2.6-3.7-6.7-5.9-11.1-6.1L155.9 62.1c-8-0.3-14.6 5.8-14.9 13.7 -0.3 7.9 5.8 14.6 13.7 14.9l258.4 11.1 -50.8 158.5H136.2L95.4 38c-0.9-4.9-4.2-8.9-8.9-10.8L19.6 1C12.2-1.9 3.9 1.7 1 9.1c-2.9 7.4 0.7 15.7 8.1 18.6l59.5 23.4 41.6 226.3c1.3 6.8 7.2 11.7 14.1 11.7h6.9l-15.7 43.7c-1.3 3.7-0.8 7.7 1.5 10.9 2.2 3.2 5.9 5.1 9.8 5.1h11c-6.8 7.6-11 17.6-11 28.7 0 23.7 19.3 43 43 43 23.7 0 43-19.3 43-43 0-11-4.2-21.1-11-28.7h93.8c-6.8 7.6-11 17.6-11 28.7 0 23.7 19.3 43 43 43 23.7 0 43-19.3 43-43 0-11-4.2-21.1-11-28.7h13.4c6.6 0 11.9-5.3 11.9-11.9 0-6.6-5.3-11.9-11.9-11.9H143.7l12.9-35.8h216.2c6.2 0 11.8-4 13.7-10l59.7-186.4C447.5 88.5 446.8 83.9 444.3 80.2zM327.4 358.4c10.5 0 19.1 8.6 19.1 19.1 0 10.5-8.6 19.1-19.1 19.1 -10.5 0-19.1-8.6-19.1-19.1C308.3 367 316.8 358.4 327.4 358.4zM169.7 358.4c10.5 0 19.1 8.6 19.1 19.1 0 10.5-8.6 19.1-19.1 19.1 -10.5 0-19.1-8.6-19.1-19.1C150.5 367 159.1 358.4 169.7 358.4z"/></svg>