<svg xmlns="http://www.w3.org/2000/svg" viewBox="0 0 857 88.5"><path d="M74.2 38.2c-1.6-2-3.7-3.6-6.2-4.9-2.5-1.3-5.4-1.9-8.8-1.9-4.1 0-7.6 1-10.5 3.1-2.9 2.1-5.2 4.9-6.8 8.3-1.5-3.3-3.8-6-6.9-8.1-3.1-2.1-6.8-3.2-10.9-3.2-3.4 0-6.3.8-8.7 2.4-2.5 1.6-4.5 3.5-6.1 5.9L9.2 34c0-.6-.2-1-.5-1.3-.3-.3-.7-.4-1-.4H4.6c-1.1 0-1.6.6-1.6 1.8v50c0 1.3.7 2 2.1 2h2.2c1.3 0 2-.7 2-2V52c0-2 .4-3.9 1.2-5.6.8-1.8 1.8-3.3 3.1-4.6 1.3-1.3 2.9-2.4 4.6-3.1 1.8-.8 3.6-1.2 5.6-1.2s3.8.4 5.5 1.1c1.7.7 3.2 1.7 4.5 3 1.3 1.3 2.3 2.8 3 4.5.7 1.7 1.1 3.6 1.1 5.6v32.2c0 1.4.7 2.1 2.1 2.1h2.2c1.4 0 2.1-.7 2.1-2.2V54.7c0-2.3.3-4.5 1-6.6.7-2.1 1.6-3.9 2.9-5.5 1.2-1.6 2.8-2.8 4.6-3.7 1.8-.9 4-1.4 6.4-1.4 2 0 3.8.4 5.5 1.1 1.7.7 3.1 1.8 4.3 3.1 1.2 1.3 2.2 2.9 2.9 4.6.7 1.8 1 3.6 1 5.6v32c0 1.4.7 2.1 2.2 2.1h2c1.5 0 2.2-.7 2.2-2.2V52.1c0-2.4-.4-4.9-1.2-7.3-1-2.5-2.2-4.7-3.9-6.6zM138.3 39.3c-2.4-2.6-5.3-4.6-8.6-6-3.3-1.5-6.9-2.2-10.8-2.2-3.9 0-7.5.7-10.8 2.2-3.3 1.5-6.2 3.5-8.6 6-2.4 2.6-4.3 5.6-5.7 9-1.4 3.4-2.1 7.1-2.1 10.9 0 3.9.7 7.5 2.1 10.9 1.4 3.4 3.3 6.4 5.7 9 2.4 2.6 5.3 4.6 8.6 6s6.9 2.2 10.8 2.2c3.9 0 7.5-.7 10.8-2.2 3.3-1.5 6.2-3.5 8.6-6 2.4-2.6 4.3-5.6 5.7-9 1.4-3.4 2.1-7.1 2.1-10.9 0-3.9-.7-7.5-2.1-10.9-1.4-3.5-3.3-6.5-5.7-9zm.1 28.4c-1.1 2.7-2.5 5-4.4 7-1.9 2-4.1 3.6-6.7 4.7-2.6 1.2-5.4 1.8-8.4 1.8s-5.8-.6-8.4-1.8c-2.6-1.2-4.8-2.8-6.7-4.7-1.9-2-3.3-4.3-4.4-7-1.1-2.7-1.6-5.5-1.6-8.5s.5-5.8 1.6-8.5 2.5-5 4.4-7c1.9-2 4.1-3.6 6.7-4.7 2.6-1.2 5.4-1.8 8.4-1.8s5.8.6 8.4 1.8c2.6 1.2 4.8 2.8 6.7 4.7 1.9 2 3.3 4.3 4.4 7 1.1 2.7 1.6 5.5 1.6 8.5s-.6 5.8-1.6 8.5zM205.4 4.4h-2.3c-1.4 0-2.1.7-2.1 2.2v37.2c-1.7-3.5-4.2-6.5-7.5-9s-7.5-3.7-12.5-3.7c-3.6 0-7 .7-10.1 2.2-3.2 1.5-5.9 3.5-8.2 6-2.3 2.5-4.1 5.5-5.5 9-1.4 3.4-2 7.1-2 11 0 3.9.7 7.5 2 10.9 1.4 3.4 3.2 6.4 5.5 8.9s5 4.5 8.2 6c3.2 1.5 6.5 2.2 10.1 2.2 3.2 0 6-.4 8.3-1.2 2.3-.8 4.3-1.7 5.8-2.8 1.6-1.1 2.8-2.2 3.8-3.4 1-1.2 1.6-2.2 2.1-3v6.8c0 1.5.7 2.3 2.1 2.3h2.3c.8 0 1.3-.2 1.6-.6.3-.4.4-1 .4-1.7V6.6c0-.7-.1-1.2-.4-1.6-.2-.4-.8-.6-1.6-.6zm-5.5 63.2c-1.1 2.7-2.5 5-4.3 7-1.8 2-4 3.5-6.4 4.7-2.4 1.2-5 1.8-7.7 1.8s-5.3-.6-7.7-1.8c-2.4-1.2-4.5-2.7-6.3-4.7-1.8-2-3.2-4.3-4.3-7-1.1-2.7-1.6-5.5-1.6-8.5s.5-5.8 1.6-8.5 2.5-5 4.3-7c1.8-2 3.9-3.5 6.3-4.7 2.4-1.2 5-1.8 7.7-1.8s5.3.6 7.7 1.8c2.4 1.2 4.5 2.7 6.4 4.7 1.8 2 3.3 4.3 4.3 7 1.1 2.7 1.6 5.5 1.6 8.5s-.6 5.8-1.6 8.5zM263.2 39c-2.3-2.5-4.9-4.4-8-5.8-3-1.4-6.3-2.1-9.7-2.1-3.6 0-7 .7-10.1 2.2-3.2 1.5-5.9 3.5-8.3 6-2.3 2.6-4.2 5.6-5.6 9-1.4 3.4-2 7.1-2 10.9 0 3.8.7 7.4 2 10.8 1.4 3.4 3.2 6.4 5.6 9 2.4 2.6 5.2 4.6 8.4 6 3.2 1.5 6.7 2.2 10.3 2.2 3.8 0 7.3-.7 10.6-2.2 3.2-1.5 6.2-3.4 8.8-5.7.9-.8 1.4-1.4 1.4-1.9.1-.4-.1-1-.7-1.5l-1.3-1.9c-.4-.4-.8-.5-1.3-.5s-1 .3-1.5.8c-2 2.1-4.3 3.7-7.1 4.9-2.8 1.2-5.7 1.9-8.7 1.9h-.2c-2.6-.1-5.1-.6-7.5-1.6-2.3-1-4.4-2.4-6.2-4.2-1.8-1.8-3.2-3.8-4.3-6.2-1.1-2.4-1.7-4.9-1.9-7.6h40.5c1.2 0 2.3-.2 3.1-.7.8-.4 1.2-1.3 1.2-2.6 0-3.7-.7-7.3-2-10.6-1.4-3.3-3.3-6.2-5.5-8.6zm-37.1 16.3c.4-2.6 1.2-5.1 2.4-7.3 1.1-2.2 2.5-4.1 4.2-5.7 1.7-1.6 3.6-2.9 5.7-3.8 2.1-.9 4.4-1.4 6.8-1.4 2.3 0 4.6.5 6.8 1.4 2.2.9 4.1 2.2 5.8 3.8 1.7 1.6 3.2 3.5 4.3 5.8 1.2 2.2 1.9 4.6 2.2 7.2h-38.2zM313.1 34.4c-1.2-.9-2.9-1.6-4.9-2.2-2-.6-3.8-.9-5.4-.9-3.5 0-6.5.8-9.1 2.5-2.5 1.7-4.3 3.8-5.3 6.5l-.1-6c-.1-.6-.2-1.1-.4-1.5-.2-.4-.6-.6-1.3-.6h-2.8c-1.2 0-1.8.8-1.8 2.5v49.4c0 1.2.7 1.9 2 1.9h2.3c1.3 0 2-.7 2-2V54.3c0-2.1.3-4.2 1-6.2s1.7-3.8 2.9-5.3 2.7-2.8 4.4-3.7c1.7-1 3.6-1.4 5.6-1.4 1.5 0 2.9.3 4.3.8s2.6 1.2 3.6 1.8c.2.1.6.2 1 .3.5 0 .9-.2 1.3-.6l1.6-2.4c.4-.6.4-1.2 0-1.7-.2-.7-.5-1.1-.9-1.5zM363.7 37.7c-2-2.1-4.3-3.7-7-4.9-2.7-1.2-5.6-1.8-8.8-1.8-3.7 0-7.1.9-10.2 2.8-3 1.8-5.5 4.1-7.3 6.8l-.2-6.8c0-.4-.1-.7-.3-1-.2-.3-.6-.5-1.2-.5h-3.1c-1.1 0-1.6.5-1.6 1.4V84c0 .7.1 1.2.3 1.5.2.3.7.5 1.4.5h2.9c.7 0 1.1-.2 1.3-.5.2-.3.3-.8.3-1.5V53c0-2.2.5-4.3 1.4-6.2 1-1.9 2.2-3.6 3.7-5.1s3.3-2.6 5.4-3.4c2.1-.8 4.2-1.2 6.4-1.2 2.3 0 4.4.4 6.4 1.3 2 .8 3.7 2 5.2 3.5s2.7 3.2 3.6 5.2c.9 2 1.3 4.1 1.3 6.4v30.4c0 .7.1 1.3.3 1.6.2.3.7.5 1.5.5h2.9c1.2 0 1.8-.7 1.8-2.2v-29c0-3.4-.6-6.6-1.7-9.6-1.2-2.9-2.7-5.5-4.7-7.5zM440.3 32.1h-9.6V15.8c0-.7-.1-1.2-.3-1.8-.2-.5-.7-.7-1.4-.6l-2.8.4c-1.2.1-1.9.8-1.9 1.9V32h-7.6c-.7 0-1.3.1-1.6.4-.3.3-.5.8-.5 1.6v2c0 .8.2 1.3.5 1.6.3.3.9.4 1.6.4h7.6v33.8c0 3 .3 5.5 1 7.4.7 1.9 1.6 3.4 2.8 4.5 1.2 1.1 2.6 1.9 4.2 2.3 1.6.4 3.3.6 5.2.6h1.6c.7 0 1.4-.1 1.9-.3.5-.2.8-.6.8-1.4V82c0-.8-.2-1.3-.7-1.4-.5-.1-1-.2-1.6-.2h-2.1c-2.3-.2-4-1-5.1-2.3-1.1-1.3-1.7-3.9-1.7-7.8V38h9.6c1.5 0 2.2-.7 2.2-2.1v-1.8c.1-1.3-.7-2-2.1-2zM496.6 38c-1.8-2.2-4.1-3.9-6.7-5.1-2.6-1.2-5.6-1.9-8.9-1.9-3.7 0-7.2.9-10.4 2.6-3.2 1.7-5.7 3.9-7.5 6.5V6.5c0-1.4-.6-2.1-1.9-2.1h-2.6c-1.2 0-1.8.7-1.8 2.1V84c0 1.3.7 2 2 2h2.3c1.3 0 2-.7 2-2V53.2c0-2.2.5-4.3 1.5-6.2 1-1.9 2.4-3.6 4-5.1 1.6-1.4 3.5-2.5 5.7-3.4 2.1-.8 4.3-1.2 6.5-1.2 2.3 0 4.3.4 6.2 1.3 1.9.9 3.5 2.1 4.8 3.5 1.4 1.5 2.4 3.2 3.1 5.1.7 1.9 1.1 4 1.1 6.2V84c0 1.3.6 2 1.9 2h2.5c1.2 0 1.9-.7 1.9-2V54.8c0-3.3-.5-6.4-1.5-9.2-1-2.9-2.4-5.5-4.2-7.6zM565.4 32.2h-2.3c-.8 0-1.3.2-1.5.5-.2.4-.4.9-.4 1.7l-.2 9.3c-.5-1.9-1.4-3.6-2.6-5.2-1.2-1.5-2.8-2.9-4.5-4-1.8-1.1-3.7-2-5.9-2.6-2.2-.6-4.5-.9-6.9-.9-3.7 0-7.2.7-10.5 2.2-3.2 1.5-6 3.5-8.4 6-2.4 2.6-4.2 5.6-5.6 9-1.3 3.4-2 7.1-2 11 0 3.9.7 7.5 2 10.9 1.4 3.4 3.2 6.4 5.6 8.9 2.3 2.5 5.1 4.5 8.4 6 3.2 1.5 6.7 2.2 10.5 2.2 4.8 0 9.1-1.1 12.7-3.4 3.6-2.3 6-5.5 7.4-9.6V84c0 .7.1 1.2.3 1.5.2.3.7.4 1.5.4h2.6c1.2 0 1.9-.6 1.9-1.8V34.4c-.3-1.5-.9-2.2-2.1-2.2zm-6 35.6c-1 2.6-2.4 5-4.1 6.9-1.8 2-3.9 3.5-6.3 4.7-2.5 1.1-5.2 1.7-8.1 1.7-2.9 0-5.6-.6-8.1-1.8-2.5-1.2-4.6-2.8-6.4-4.7-1.8-2-3.2-4.3-4.2-6.9-1-2.6-1.5-5.5-1.5-8.5s.5-5.8 1.5-8.5 2.4-5 4.2-7c1.8-2 3.9-3.6 6.4-4.8 2.5-1.2 5.2-1.8 8.1-1.8 2.9 0 5.6.6 8.1 1.8 2.5 1.2 4.6 2.8 6.3 4.8 1.8 2 3.1 4.4 4.1 7 1 2.7 1.5 5.5 1.5 8.5 0 3.1-.5 6-1.5 8.6zM587.3 11.3c-1.4 0-2.6.5-3.6 1.5s-1.5 2.2-1.5 3.7c0 1.4.5 2.6 1.5 3.6s2.2 1.5 3.6 1.5c1.5 0 2.7-.5 3.7-1.5s1.5-2.2 1.5-3.6c0-1.5-.5-2.7-1.5-3.7s-2.2-1.5-3.7-1.5zM588.5 32.2h-2.2c-1.4 0-2.1.7-2.1 2V84c0 1.3.7 2 2.1 2h2.2c1.4 0 2.1-.7 2.1-2V34.2c0-1.3-.7-2-2.1-2zM663.1 4c-5.3 0-9.4 1.5-12.4 4.6s-4.5 7.4-4.5 12.9V32h-6.9c-1.5 0-2.2.7-2.2 2.2v1.4c0 1.5.7 2.3 2.2 2.3h6.9v46c0 1.4.7 2.1 2 2.1h2.1c.6 0 1.1-.2 1.6-.5.5-.4.7-.9.7-1.5V38h9.8c1.4 0 2.1-.8 2.1-2.3v-1.4c0-1.5-.7-2.2-2.1-2.2h-9.8V21.8c0-3.7 1-6.6 2.9-8.5 1.9-1.9 4.5-2.9 7.8-2.9.6 0 1.1-.2 1.5-.6.4-.4.6-.9.6-1.5V6.5c0-1.6-.7-2.5-2.3-2.5zM718.7 39.3c-2.4-2.6-5.3-4.6-8.6-6-3.3-1.5-6.9-2.2-10.8-2.2-3.9 0-7.5.7-10.8 2.2-3.3 1.5-6.2 3.5-8.6 6-2.4 2.6-4.3 5.6-5.7 9-1.4 3.4-2.1 7.1-2.1 10.9 0 3.9.7 7.5 2.1 10.9 1.4 3.4 3.3 6.4 5.7 9 2.4 2.6 5.3 4.6 8.6 6 3.3 1.5 6.9 2.2 10.8 2.2 3.9 0 7.5-.7 10.8-2.2 3.3-1.5 6.2-3.5 8.6-6 2.4-2.6 4.3-5.6 5.7-9 1.4-3.4 2.1-7.1 2.1-10.9 0-3.9-.7-7.5-2.1-10.9-1.4-3.5-3.3-6.5-5.7-9zm0 28.4c-1.1 2.7-2.5 5-4.4 7-1.9 2-4.1 3.6-6.7 4.7-2.6 1.2-5.4 1.8-8.4 1.8s-5.8-.6-8.4-1.8c-2.6-1.2-4.8-2.8-6.7-4.7-1.9-2-3.3-4.3-4.4-7-1.1-2.7-1.6-5.5-1.6-8.5s.5-5.8 1.6-8.5 2.5-5 4.4-7c1.9-2 4.1-3.6 6.7-4.7 2.6-1.2 5.4-1.8 8.4-1.8s5.8.6 8.4 1.8c2.6 1.2 4.8 2.8 6.7 4.7 1.9 2 3.3 4.3 4.4 7 1.1 2.7 1.6 5.5 1.6 8.5s-.5 5.8-1.6 8.5zM782.8 39.3c-2.4-2.6-5.3-4.6-8.6-6-3.3-1.5-6.9-2.2-10.8-2.2-3.9 0-7.5.7-10.8 2.2-3.3 1.5-6.2 3.5-8.6 6-2.4 2.6-4.3 5.6-5.7 9-1.4 3.4-2.1 7.1-2.1 10.9 0 3.9.7 7.5 2.1 10.9 1.4 3.4 3.3 6.4 5.7 9 2.4 2.6 5.3 4.6 8.6 6 3.3 1.5 6.9 2.2 10.8 2.2 3.9 0 7.5-.7 10.8-2.2 3.3-1.5 6.2-3.5 8.6-6 2.4-2.6 4.3-5.6 5.7-9 1.4-3.4 2.1-7.1 2.1-10.9 0-3.9-.7-7.5-2.1-10.9-1.4-3.5-3.3-6.5-5.7-9zm.1 28.4c-1.1 2.7-2.5 5-4.4 7-1.9 2-4.1 3.6-6.7 4.7-2.6 1.2-5.4 1.8-8.4 1.8s-5.8-.6-8.4-1.8c-2.6-1.2-4.8-2.8-6.7-4.7-1.9-2-3.3-4.3-4.4-7-1.1-2.7-1.6-5.5-1.6-8.5s.5-5.8 1.6-8.5 2.5-5 4.4-7c1.9-2 4.1-3.6 6.7-4.7 2.6-1.2 5.4-1.8 8.4-1.8s5.8.6 8.4 1.8c2.6 1.2 4.8 2.8 6.7 4.7 1.9 2 3.3 4.3 4.4 7 1.1 2.7 1.6 5.5 1.6 8.5s-.6 5.8-1.6 8.5zM851.5 5c-.3-.4-.8-.6-1.6-.6h-2.3c-1.4 0-2.1.7-2.1 2.2v37.2c-1.7-3.5-4.2-6.5-7.5-9s-7.5-3.7-12.5-3.7c-3.6 0-7 .7-10.1 2.2-3.2 1.5-5.9 3.5-8.2 6-2.3 2.5-4.1 5.5-5.5 9-1.4 3.4-2 7.1-2 11 0 3.9.7 7.5 2 10.9 1.4 3.4 3.2 6.4 5.5 8.9s5 4.5 8.2 6c3.2 1.5 6.5 2.2 10.1 2.2 3.2 0 6-.4 8.3-1.2 2.3-.8 4.3-1.7 5.8-2.8 1.6-1.1 2.8-2.2 3.8-3.4 1-1.2 1.7-2.2 2.1-3v6.8c0 1.5.7 2.3 2.1 2.3h2.3c.8 0 1.3-.2 1.6-.6.3-.4.4-1 .4-1.7V6.6c0-.7-.1-1.2-.4-1.6zm-7.2 62.6c-1.1 2.7-2.5 5-4.3 7-1.8 2-4 3.5-6.4 4.7-2.4 1.2-5 1.8-7.7 1.8s-5.3-.6-7.7-1.8c-2.4-1.2-4.5-2.7-6.3-4.7-1.8-2-3.2-4.3-4.3-7-1.1-2.7-1.6-5.5-1.6-8.5s.5-5.8 1.6-8.5 2.5-5 4.3-7c1.8-2 3.9-3.5 6.3-4.7 2.4-1.2 5-1.8 7.7-1.8s5.3.6 7.7 1.8c2.4 1.2 4.5 2.7 6.4 4.7 1.8 2 3.3 4.3 4.3 7 1.1 2.7 1.6 5.5 1.6 8.5s-.5 5.8-1.6 8.5z"/></svg>