<svg xmlns="http://www.w3.org/2000/svg" viewBox="0 0 1092 105.5"><path d="M52 85.8L15 2.2H1V103h3.4V11.9l40 91.1h3.5l40.2-91.1V103h14.5V2.2H88.8zM157 50.9c-7.1 0-13.2 2.5-17.9 7.7-4.9 5.2-7.3 11.6-7.3 19.3 0 8.4 2.4 15 7.3 19.9 5 4.9 10.9 7.4 17.9 7.4s12.9-2.4 17.9-7.3c4.9-4.9 7.3-11.5 7.3-20 0-7.7-2.4-14-7.3-19.3-4.8-5.2-10.8-7.7-17.9-7.7zM168.6 97c-2.7 3.6-6.6 5.5-11.6 5.5-4.9 0-8.8-1.8-11.5-5.5-2.8-3.5-4.8-9.8-4.8-18.8 0-8.8 2-15.1 4.6-18.9s6.6-5.6 11.6-5.6 9 1.8 11.6 5.6c2.7 3.8 4.6 10.1 4.6 18.9.1 9-1.9 15.3-4.5 18.8zM252.2 18.7h-1.3v39.9c-2.8-2.7-5.7-4.6-8.7-5.9s-5.9-1.8-9-1.8c-7.3 0-13.2 2.5-17.8 7.6s-6.3 12.2-6.3 19.9c0 8 1.7 13.7 6.4 19 4.8 5.2 10.9 7.8 18.5 7.8 3.8 0 7-.8 9.8-2.4 2.8-1.5 5.2-3.8 7-6.9v9.2h8.8V18.7h-7.4c.1 0 .1.2 0 0zm-1.3 74.1c-.7 2.2-3.2 4.5-5.9 6.4-2.5 2.1-5.6 3.1-9 3.1-5.3 0-9.5-2.1-12.6-6.4-3.2-4.3-4.8-10.6-4.8-18.8 0-7.4 1.4-13.2 4.3-17.1 2.9-3.9 6.9-5.9 11.8-5.9 2.8 0 5.5.7 8.1 2 2.8 1.4 5.5 3.4 8 6v30.7zM333.4 70c0-4.9-1.4-9.1-5-13-3.5-4.1-8.7-6-15.3-6-7 0-12.9 2.7-17.5 7.8-4.6 5.3-7 11.9-7 19.9 0 5.6 1.3 10.4 3.6 14.3s5.5 6.9 9.2 9.1c3.9 2.1 7.8 3.2 12.2 3.2 4.5 0 8.8-1.3 12.6-3.5 2.2-1.4 4.1-3.1 5.5-5l-2.1-2.1c-3.2 4.9-8 7.3-14.3 7.3-5.5 0-9.7-2.2-12.3-6.6-2.8-4.5-4.2-11.2-4.2-20 0-1.1.1-2.9.3-5.3h34.3zm-20.8-16.4c10.9 0 13.3 11.1 13.3 13.9h-26.7c1.5-9.3 5.9-13.9 13.4-13.9zM367.2 62.8V49.5h-8.4V103h9.1V76.3c0-4.6.3-8.3 1-10.9.7-2.7 2.2-5.3 4.9-7.7 4.3-3.9 8.1-5.2 12.9-2.1l1.8-3.6c-7.5-4.2-18.2.3-21.3 10.8zM454.3 52.5c-2.5-2-6-2.9-10.2-2.9-3.8 0-7.3.8-10.5 2.7-3.2 1.8-6.3 4.5-9.1 8.1V49.5h-9V103h9V63.9c2.8-3.4 5.6-5.9 8.3-7.6 2.8-1.7 5.5-2.5 8-2.5 2.7 0 4.9.7 6.7 2.2 1.8 1.4 2.9 3.2 3.2 5.2.4 2.1.6 5.3.6 9.8v32h9.1V65.1c0-3.1-.4-4.1-.4-4.1-.5-3.9-3-6.7-5.7-8.5zM621.2 2.2h-98l-.2 3.4H564.6V103h14.6V5.6h42z"/><path d="M648.1 52.2c-2.7-1.8-6.2-2.7-10.5-2.7-3.6 0-7.1.8-10.2 2.7-3.1 1.7-5.9 4.3-8.4 7.8V16.6h-1.4c-.4.1-.7.1-1.1 0H610V103h9V64.8c2-3.8 4.2-6.7 6.9-8.5 2.5-2 5.5-2.9 8.7-2.9 2.8 0 5.2.7 7 2.1 2 1.3 3.1 2.9 3.6 5 .4 2.1.7 5.2.7 9.5v33h9V71.2c0-5.9-.4-10.1-1.3-12.6s-2.7-4.7-5.5-6.4zM715.5 52.9c-2.8-1.7-6.9-2.5-12.2-2.5-6.2 0-10.6 1.5-14 3.6 1.1 1 1.1 1 2.1 2 2.7-1.8 5.7-2.8 10.6-2.8 3.1 0 5.6.6 7.4 1.8 2 1.3 3.1 2.7 3.6 4.2.4 1.5.7 4.1.7 7.6v2.5l-9.7 3.9c-7.3 2.9-13 6-17.2 9.2-4.1 3.2-5 5.7-5 10.1s5.2 11.9 11.5 11.9c2.7 0 5.7-.7 9.1-2.2 3.4-1.4 7.1-3.6 11.3-6.6v8.8h8.8V68.1c0-4.3-.4-7.6-1.4-9.7-.7-2-2.6-3.8-5.6-5.5zm-1.6 39.3c-3.2 2.5-6.2 4.5-8.7 5.7-2.5 1.3-4.8 2-6.7 2-2.2 0-3.9-.8-5.3-2.4-1.4-1.5-2.1-3.6-2.1-6.3 0-6.6 5.3-12 16-16.4l6.9-2.7v20.1zM759.9 19.4c-1.8 0-3.2.7-4.6 2-1.3 1.4-1.8 2.9-1.8 4.6 0 2 .6 3.5 1.8 4.8 1.4 1.3 2.8 2 4.6 2 1.8 0 3.4-.7 4.6-2 1.3-1.3 2-2.8 2-4.8 0-1.7-.7-3.2-2-4.6-1.2-1.3-2.8-2-4.6-2zM755.4 49.5V103h9V49.5h-9zM844.2 48.3V5.6h44.2V2.2h-58.8V103h14.6V51.8h29.1v-3.5h-19zM910.4 50.9c-7.1 0-13.2 2.5-17.9 7.7-4.9 5.2-7.3 11.6-7.3 19.3 0 8.4 2.4 15 7.3 19.9 5 4.9 10.9 7.4 17.9 7.4s12.9-2.4 17.9-7.3c4.9-4.9 7.3-11.5 7.3-20 0-7.7-2.4-14-7.3-19.3-4.7-5.2-10.7-7.7-17.9-7.7zM922 97c-2.7 3.6-6.6 5.5-11.6 5.5-4.9 0-8.8-1.8-11.5-5.5-2.8-3.5-4.8-9.8-4.8-18.8 0-8.8 2-15.1 4.6-18.9 2.7-3.8 6.6-5.6 11.6-5.6s9 1.8 11.6 5.6 4.6 10.1 4.6 18.9c.2 9-1.8 15.3-4.5 18.8zM988.4 50.9c-7.1 0-13.2 2.5-17.9 7.7-4.9 5.2-7.3 11.6-7.3 19.3 0 8.4 2.4 15 7.3 19.9 5 4.9 10.9 7.4 17.9 7.4s12.9-2.4 17.9-7.3c4.9-4.9 7.3-11.5 7.3-20 0-7.7-2.4-14-7.3-19.3-4.7-5.2-10.8-7.7-17.9-7.7zM1000 97c-2.7 3.6-6.6 5.5-11.6 5.5-4.9 0-8.8-1.8-11.5-5.5-2.8-3.5-4.8-9.8-4.8-18.8 0-8.8 2-15.1 4.6-18.9 2.7-3.8 6.6-5.6 11.6-5.6s9 1.8 11.6 5.6 4.6 10.1 4.6 18.9c.1 9-1.8 15.3-4.5 18.8zM1083.7 18.7s0 .1-.1 0h-1.3v39.9c-2.8-2.7-5.7-4.6-8.7-5.9-2.9-1.3-5.9-1.8-9-1.8-7.3 0-13.2 2.5-17.8 7.6-4.6 5-6.3 12.2-6.3 19.9 0 8 1.7 13.7 6.4 19 4.8 5.2 10.9 7.8 18.5 7.8 3.8 0 7-.8 9.8-2.4 2.8-1.5 5.2-3.8 7-6.9v9.2h8.8V18.7h-7.3zm-1.4 74.1c-.7 2.2-3.2 4.5-5.9 6.4-2.5 2.1-5.6 3.1-9 3.1-5.3 0-9.5-2.1-12.6-6.4-3.2-4.3-4.8-10.6-4.8-18.8 0-7.4 1.4-13.2 4.3-17.1 2.9-3.9 6.9-5.9 11.8-5.9 2.8 0 5.5.7 8.1 2 2.8 1.4 5.5 3.4 8 6v30.7z"/></svg>