<svg xmlns="http://www.w3.org/2000/svg" viewBox="0 0 77.4 11.4"><path d="M5.3 0.9c-1.5 0-2.7 0.5-3.7 1.5C0.5 3.5 0 4.7 0 6.2c0 1.5 0.5 2.7 1.5 3.7 1 1 2.3 1.5 3.7 1.5 1.4 0 2.7-0.5 3.7-1.5 1-1 1.5-2.3 1.5-3.7 0-1.4-0.5-2.7-1.5-3.7C7.9 1.4 6.7 0.9 5.3 0.9zM8.3 9.2c-0.8 0.8-1.9 1.3-3.1 1.3C4 10.5 3 10.1 2.2 9.2 1.3 8.4 0.9 7.4 0.9 6.2c0-1.2 0.4-2.2 1.3-3.1C3 2.2 4 1.8 5.3 1.8c1.2 0 2.2 0.4 3.1 1.3C9.2 3.9 9.6 5 9.6 6.2 9.6 7.4 9.2 8.4 8.3 9.2z"/><rect x="12.3" y="0.9" width="0.9" height="1.2"/><rect x="12.3" y="3.3" width="0.9" height="7.8"/><polygon points="15.7 0 15 2.7 16 2.7 16.7 0 "/><path d="M20.5 7l-1.8-0.5c-0.4-0.1-0.7-0.3-0.9-0.5 -0.2-0.2-0.3-0.5-0.3-0.8 0-0.4 0.2-0.7 0.5-0.9 0.3-0.3 0.7-0.4 1.3-0.4 0.8 0 1.5 0.2 2.1 0.6L22.2 4C21.4 3.3 20.5 3 19.3 3c-0.8 0-1.5 0.2-1.9 0.7 -0.5 0.4-0.7 1-0.7 1.6 0 0.5 0.2 1 0.5 1.4 0.3 0.4 0.8 0.7 1.4 0.8l1.7 0.4c0.4 0.1 0.7 0.2 0.9 0.5 0.2 0.2 0.3 0.5 0.3 0.8 0 0.4-0.2 0.8-0.6 1s-0.9 0.4-1.5 0.4c-0.7 0-1.5-0.2-2.2-0.6l-0.6 0.7c0.8 0.5 1.8 0.8 2.8 0.8 0.9 0 1.6-0.2 2.2-0.6 0.6-0.4 0.9-1 0.9-1.7 0-0.5-0.2-1-0.5-1.3C21.5 7.4 21 7.1 20.5 7z"/><polygon points="33.9 1.2 30.3 6.2 33.9 11.1 35 11.1 31.4 6.2 35 1.2 "/><rect x="28.8" y="1.2" width="0.9" height="9.9"/><rect x="36.6" y="0.9" width="0.9" height="1.2"/><rect x="36.6" y="3.3" width="0.9" height="7.8"/><polygon points="40.8 1.2 39.9 1.2 39.9 11.1 40.8 11.1 40.8 4.2 42 4.2 42 3.3 40.8 3.3 "/><path d="M46.5 3.9c0.9 0 1.7 0.3 2.3 1C48.9 5 49 5 49.1 5.1l0.7-0.6c-0.1-0.1-0.2-0.2-0.3-0.3 -0.8-0.8-1.8-1.2-3-1.2s-2.1 0.4-3 1.2c-0.8 0.8-1.2 1.8-1.2 3s0.4 2.1 1.2 3 1.8 1.2 3 1.2 2.2-0.4 3-1.2c0.1-0.1 0.2-0.2 0.3-0.3l-0.7-0.6c-0.1 0.1-0.1 0.2-0.2 0.3 -0.6 0.6-1.4 1-2.3 1s-1.7-0.3-2.3-1c-0.6-0.6-1-1.4-1-2.3s0.3-1.7 1-2.3C44.8 4.2 45.6 3.9 46.5 3.9z"/><path d="M55.2 3c-1 0-1.9 0.4-2.7 1.1V1.2h-0.9v9.9h0.9V5.6c0.1-0.3 0.3-0.6 0.6-0.8 0.6-0.6 1.3-0.9 2.1-0.9s1.5 0.3 2.1 0.9c0.6 0.6 0.9 1.3 0.9 2.1v4.2h0.9V6.9c0-1.1-0.4-2-1.1-2.8C57.2 3.4 56.3 3 55.2 3z"/><path d="M67.8 4.2C67 3.4 66 3 64.8 3s-2.1 0.4-3 1.2c-0.8 0.8-1.2 1.8-1.2 3s0.4 2.1 1.2 3 1.8 1.2 3 1.2 2.2-0.4 3-1.2l-0.6-0.6c-0.6 0.6-1.4 1-2.3 1 -0.8 0-1.4-0.2-2-0.7l5.3-5.3C68 4.5 67.9 4.3 67.8 4.2zM62.2 9.2c-0.4-0.6-0.7-1.2-0.7-2 0-0.9 0.3-1.7 1-2.3 0.6-0.6 1.4-1 2.3-1 0.8 0 1.4 0.2 2 0.7L62.2 9.2z"/><path d="M76.3 4.2C75.5 3.4 74.6 3 73.5 3c-1 0-1.9 0.4-2.7 1.1V3.3h-0.9v7.8h0.9V5.6c0.1-0.3 0.3-0.6 0.6-0.8 0.6-0.6 1.3-0.9 2.1-0.9s1.5 0.3 2.1 0.9c0.6 0.6 0.9 1.3 0.9 2.1v4.2h0.9V6.9C77.4 5.8 77 4.9 76.3 4.2z"/></svg>