<svg id="Capa_1" data-name="Capa 1" xmlns="http://www.w3.org/2000/svg" viewBox="0 0 445.07 445.07"><title>shopping-basket</title><path d="M412.07,225.13h-.76C403.54,138.38,353.93,66.47,286.8,38.86a69,69,0,0,1-12.39,27c56.55,23.49,98.76,84.85,106.32,159.3H66.34c7.49-73.7,48.9-134.55,104.6-158.57a71.41,71.41,0,0,1-12.13-25C94.87,71,48.08,141.1,40.54,225.13H33.42c-16.08,0-25.58,12.35-21.21,27.61L59.48,417.46c4.37,15.24,21,27.61,37,27.61H344.1c16.08,0,32.92-12.29,37.61-27.44l51-165C437.39,237.42,428.15,225.13,412.07,225.13Z"/><path d="M222.26,93.24l.79-.59c18.48-7.46,32.62-18.46,42-30.37C272,53.44,276.15,44.14,277.6,35.4c1.83-11-.77-21.14-8.39-28.12C263.39,1.94,257.34,0,251.6,0c-15.75,0-29.16,14.76-29.16,14.76h-.18S208.85,0,193.1,0c-5.74,0-11.79,1.92-17.61,7.26-8.14,7.46-10.57,18.55-7.86,30.55,1.85,8.19,6.11,16.81,12.59,25C189.68,74.78,203.85,85.81,222.26,93.24Z"/></svg>