<svg xmlns="http://www.w3.org/2000/svg" viewBox="0 0 83.2 14.1"><path d="M5.4 5.2L2.9 4.5C2.5 4.3 2.1 4.1 1.8 3.8 1.5 3.5 1.3 3.1 1.3 2.7c0-0.5 0.2-0.9 0.6-1.2 0.4-0.4 1-0.5 1.7-0.5 0.5 0 1 0.1 1.5 0.3S6 1.7 6.2 2L7 1.5c-0.4-0.4-0.8-0.8-1.4-1C5.1 0.1 4.4 0 3.7 0c-1 0-1.8 0.3-2.4 0.8C0.7 1.3 0.4 1.9 0.4 2.7c0 0.6 0.2 1.2 0.6 1.7s1 0.8 1.7 1L5 6c0.5 0.1 0.8 0.3 1.1 0.6C6.4 7 6.5 7.3 6.5 7.7c0 0.5-0.2 0.9-0.7 1.3 -0.4 0.4-1.1 0.6-2 0.6 -0.6 0-1.1-0.1-1.7-0.4 -0.6-0.3-1-0.7-1.4-1.3L0 8.4C0.4 9 0.9 9.5 1.6 9.9c0.7 0.4 1.4 0.6 2.3 0.6 1.1 0 2-0.3 2.6-0.8 0.6-0.5 0.9-1.2 0.9-1.9 0-0.7-0.2-1.2-0.6-1.7C6.5 5.7 6 5.3 5.4 5.2z"/><rect x="9.4" y="2.4" width="0.9" height="7.8"/><rect x="9.4" width="0.9" height="1.2"/><path d="M16.3 2.1c-1 0-1.9 0.4-2.7 1.1V2.4h-0.9v7.8h0.9V4.7c0.1-0.3 0.3-0.6 0.6-0.8C14.7 3.3 15.4 3 16.3 3s1.5 0.3 2.1 0.9C19 4.5 19.3 5.2 19.3 6v4.2h0.9V6c0-1.1-0.4-2-1.1-2.8C18.3 2.5 17.3 2.1 16.3 2.1z"/><path d="M25.9 3c0.9 0 1.7 0.3 2.3 1 0.1 0.1 0.2 0.2 0.2 0.3l0.7-0.6c-0.1-0.1-0.2-0.2-0.3-0.3 -0.8-0.8-1.8-1.2-3-1.2 -1.2 0-2.1 0.4-3 1.2 -0.8 0.8-1.2 1.8-1.2 3 0 1.2 0.4 2.2 1.2 3 0.8 0.8 1.8 1.2 3 1.2 1.2 0 2.2-0.4 3-1.2C28.9 9.2 29 9.1 29.1 9l-0.7-0.6c-0.1 0.1-0.1 0.2-0.2 0.3 -0.6 0.6-1.4 1-2.3 1 -0.9 0-1.7-0.3-2.3-1 -0.6-0.6-1-1.4-1-2.3 0-0.9 0.3-1.7 1-2.3S24.9 3 25.9 3z"/><path d="M37.5 3.3c-0.8-0.8-1.8-1.2-3-1.2 -1.2 0-2.1 0.4-3 1.2 -0.8 0.8-1.2 1.8-1.2 3 0 1.2 0.4 2.2 1.2 3 0.8 0.8 1.8 1.2 3 1.2 1.2 0 2.2-0.4 3-1.2l-0.6-0.6c-0.6 0.6-1.4 1-2.3 1 -0.8 0-1.4-0.2-2-0.7l5.3-5.3C37.7 3.6 37.6 3.4 37.5 3.3zM31.9 8.3c-0.4-0.6-0.7-1.2-0.7-2 0-0.9 0.3-1.7 1-2.3s1.4-1 2.3-1c0.8 0 1.4 0.2 2 0.7L31.9 8.3z"/><path d="M40.6 2.4h-0.9v7.8h0.9V4.7c0.1-0.3 0.3-0.6 0.6-0.8C41.7 3.3 42.4 3 43.3 3V2.1c-1 0-1.9 0.4-2.7 1.1V2.4z"/><path d="M50.7 3.3c-0.8-0.8-1.8-1.2-3-1.2s-2.1 0.4-3 1.2c-0.8 0.8-1.2 1.8-1.2 3 0 1.2 0.4 2.2 1.2 3s1.8 1.2 3 1.2 2.2-0.4 3-1.2l-0.6-0.6c-0.6 0.6-1.4 1-2.3 1 -0.8 0-1.4-0.2-2-0.7L51 3.7C50.9 3.6 50.8 3.4 50.7 3.3zM45.1 8.3c-0.4-0.6-0.7-1.2-0.7-2 0-0.9 0.3-1.7 1-2.3 0.6-0.6 1.4-1 2.3-1 0.8 0 1.4 0.2 2 0.7L45.1 8.3z"/><rect x="52.9" y="0.3" width="0.9" height="9.9"/><path d="M62.5 7.9c-0.1 0.3-0.3 0.6-0.6 0.8 -0.6 0.6-1.3 0.9-2.1 0.9s-1.5-0.3-2.1-0.9 -0.9-1.3-0.9-2.1V2.4h-0.9v4.2c0 1.1 0.4 2 1.1 2.8s1.7 1.1 2.8 1.1c1 0 1.9-0.4 2.7-1.1v0.8c0 0.8-0.3 1.5-0.9 2.1s-1.3 0.9-2.1 0.9v0.9c1.1 0 2-0.4 2.8-1.1s1.1-1.7 1.1-2.8V2.4h-0.9V7.9z"/><path d="M75.2 0c-1.5 0-2.7 0.5-3.7 1.5 -1 1-1.5 2.3-1.5 3.7 0 1.5 0.5 2.7 1.5 3.7 1 1 2.3 1.5 3.7 1.5 1.4 0 2.7-0.5 3.7-1.5 1-1 1.5-2.3 1.5-3.7 0-1.4-0.5-2.7-1.5-3.7C77.9 0.5 76.7 0 75.2 0zM78.3 8.3c-0.8 0.8-1.9 1.3-3.1 1.3 -1.2 0-2.2-0.4-3.1-1.3 -0.8-0.8-1.3-1.9-1.3-3.1 0-1.2 0.4-2.2 1.3-3.1C73 1.3 74 0.9 75.2 0.9c1.2 0 2.2 0.4 3.1 1.3C79.1 3 79.6 4 79.6 5.2 79.6 6.5 79.1 7.5 78.3 8.3z"/><rect x="82.3" y="2.4" width="0.9" height="7.8"/><rect x="82.3" width="0.9" height="1.2"/></svg>